<svg width="16" height="16" viewBox="0 0 16 16" fill="none" xmlns="http://www.w3.org/2000/svg">
<path d="M5.99992 6.66668C5.82311 6.66668 5.65354 6.73691 5.52851 6.86194C5.40349 6.98696 5.33325 7.15653 5.33325 7.33334V8.66668C5.33325 8.84349 5.40349 9.01306 5.52851 9.13808C5.65354 9.26311 5.82311 9.33334 5.99992 9.33334C6.17673 9.33334 6.3463 9.26311 6.47132 9.13808C6.59635 9.01306 6.66659 8.84349 6.66659 8.66668V7.33334C6.66659 7.15653 6.59635 6.98696 6.47132 6.86194C6.3463 6.73691 6.17673 6.66668 5.99992 6.66668ZM13.9999 7.33334C14.1767 7.33334 14.3463 7.26311 14.4713 7.13808C14.5963 7.01306 14.6666 6.84349 14.6666 6.66668V4.00001C14.6666 3.8232 14.5963 3.65363 14.4713 3.52861C14.3463 3.40358 14.1767 3.33334 13.9999 3.33334H1.99992C1.82311 3.33334 1.65354 3.40358 1.52851 3.52861C1.40349 3.65363 1.33325 3.8232 1.33325 4.00001V6.66668C1.33325 6.84349 1.40349 7.01306 1.52851 7.13808C1.65354 7.26311 1.82311 7.33334 1.99992 7.33334C2.17673 7.33334 2.3463 7.40358 2.47132 7.52861C2.59635 7.65363 2.66659 7.8232 2.66659 8.00001C2.66659 8.17682 2.59635 8.34639 2.47132 8.47141C2.3463 8.59644 2.17673 8.66668 1.99992 8.66668C1.82311 8.66668 1.65354 8.73692 1.52851 8.86194C1.40349 8.98696 1.33325 9.15653 1.33325 9.33334V12C1.33325 12.1768 1.40349 12.3464 1.52851 12.4714C1.65354 12.5964 1.82311 12.6667 1.99992 12.6667H13.9999C14.1767 12.6667 14.3463 12.5964 14.4713 12.4714C14.5963 12.3464 14.6666 12.1768 14.6666 12V9.33334C14.6666 9.15653 14.5963 8.98696 14.4713 8.86194C14.3463 8.73692 14.1767 8.66668 13.9999 8.66668C13.8231 8.66668 13.6535 8.59644 13.5285 8.47141C13.4035 8.34639 13.3333 8.17682 13.3333 8.00001C13.3333 7.8232 13.4035 7.65363 13.5285 7.52861C13.6535 7.40358 13.8231 7.33334 13.9999 7.33334ZM13.3333 6.12001C12.9472 6.26015 12.6136 6.51576 12.3778 6.85212C12.1421 7.18848 12.0156 7.58926 12.0156 8.00001C12.0156 8.41076 12.1421 8.81154 12.3778 9.1479C12.6136 9.48426 12.9472 9.73987 13.3333 9.88001V11.3333H6.66659C6.66659 11.1565 6.59635 10.987 6.47132 10.8619C6.3463 10.7369 6.17673 10.6667 5.99992 10.6667C5.82311 10.6667 5.65354 10.7369 5.52851 10.8619C5.40349 10.987 5.33325 11.1565 5.33325 11.3333H2.66659V9.88001C3.05269 9.73987 3.38628 9.48426 3.62202 9.1479C3.85777 8.81154 3.98424 8.41076 3.98424 8.00001C3.98424 7.58926 3.85777 7.18848 3.62202 6.85212C3.38628 6.51576 3.05269 6.26015 2.66659 6.12001V4.66668H5.33325C5.33325 4.84349 5.40349 5.01306 5.52851 5.13808C5.65354 5.26311 5.82311 5.33334 5.99992 5.33334C6.17673 5.33334 6.3463 5.26311 6.47132 5.13808C6.59635 5.01306 6.66659 4.84349 6.66659 4.66668H13.3333V6.12001Z" fill="#75839D"/>
</svg>
