<svg width="16" height="16" viewBox="0 0 16 16" fill="none" xmlns="http://www.w3.org/2000/svg">
<path d="M14.3333 7.33337V11.3334C14.3333 14 13.6667 14.6667 11 14.6667H4.33333C1.66667 14.6667 1 14 1 11.3334V4.66671C1 2.00004 1.66667 1.33337 4.33333 1.33337H5.33333C6.33333 1.33337 6.55333 1.62671 6.93333 2.13337L7.93333 3.46671C8.18667 3.80004 8.33333 4.00004 9 4.00004H11C13.6667 4.00004 14.3333 4.66671 14.3333 7.33337Z" stroke="#75839D" stroke-miterlimit="10"/>
<path d="M5.33325 1.33337H11.3333C12.6666 1.33337 13.3333 2.00004 13.3333 3.33337V4.25337" stroke="#75839D" stroke-miterlimit="10" stroke-linecap="round" stroke-linejoin="round"/>
<path d="M9.33333 10H6" stroke="#75839D" stroke-miterlimit="10" stroke-linecap="round" stroke-linejoin="round"/>
</svg>
