<!--?xml version="1.0" standalone="no"?-->
              <svg id="sw-js-blob-svg" viewBox="0 0 100 100" xmlns="http://www.w3.org/2000/svg" version="1.1">
                    <defs> 
                        <linearGradient id="sw-gradient" x1="0" x2="1" y1="1" y2="0">
                            <stop id="stop1" stop-color="rgba(248, 117, 55, 1)" offset="0%"></stop>
                            <stop id="stop2" stop-color="rgba(251, 168, 31, 1)" offset="100%"></stop>
                        </linearGradient>
                    </defs>
                <path fill="url(#sw-gradient)" d="M21.5,-36.1C28.4,-33.3,34.7,-28.5,37.4,-22.2C40.1,-15.8,39.1,-7.9,37.9,-0.7C36.8,6.5,35.4,13.1,32.3,18.8C29.2,24.5,24.5,29.3,18.8,32.5C13.1,35.7,6.6,37.2,-0.7,38.4C-8,39.7,-15.9,40.5,-21.6,37.4C-27.3,34.2,-30.8,27,-34.9,20.1C-39,13.2,-43.7,6.6,-43.5,0.1C-43.3,-6.3,-38,-12.6,-33.5,-18.8C-29,-25,-25.3,-31.1,-19.8,-34.7C-14.3,-38.3,-7.2,-39.3,0.1,-39.4C7.3,-39.6,14.7,-38.9,21.5,-36.1Z" width="100%" height="100%" transform="translate(50 50)" stroke-width="0" style="transition: all 0.3s ease 0s;"></path>
              </svg>