<svg width="16" height="16" viewBox="0 0 16 16" fill="none" xmlns="http://www.w3.org/2000/svg">
<path d="M8 2C4.69229 2 2 4.69143 2 8C2 11.3086 4.69229 14 8 14C11.3077 14 14 11.3086 14 8C14 4.69143 11.3077 2 8 2ZM8 13.1429C5.16371 13.1429 2.85714 10.8363 2.85714 8C2.85714 5.16371 5.16371 2.85714 8 2.85714C10.8363 2.85714 13.1429 5.16371 13.1429 8C13.1429 10.8363 10.8363 13.1429 8 13.1429Z" fill="#75839D" stroke="#75839D" stroke-width="0.5"/>
<path d="M8 10C9.10457 10 10 9.10457 10 8C10 6.89543 9.10457 6 8 6C6.89543 6 6 6.89543 6 8C6 9.10457 6.89543 10 8 10Z" fill="#75839D"/>
</svg>
